PathFileType	4	(x/y/z)	S06_P20_T63
DataRate	CameraRate	NumFrames	NumMarkers	Units	OrigDataRate	OrigDataStartFrame	OrigNumFrames
240	240	7	51	mm	240	89	355
Frame#	Time	Sternum			R.Acromium			L.Acromium			Top.Head			R.ASIS			L.ASIS			R.PSIS			L.PSIS			R.Great.Tro			L.Great.Tro			R.Iliac.Crest			L.Iliac.Crest			V.Sacral			R.Thigh.Upper.Post			R.Thigh.Lower.Ant			R.Thigh.Lower.Post			R.Thigh.Upper.Ant			R.Knee.Lat			R.Knee.Med			R.Shank.Upper.Post			R.Shank.Lower.Ant			R.Shank.Lower.Post			R.Shank.Upper.Ant			R.Ankle.Lat			R.Ankle.Med			R.Heel.Upper			R.Heel.Med			R.Heel.Lat			R.Toe.Lat			R.Toe.Med			R.Toe.Tip			L.Thigh.Upper.Post			L.Thigh.Lower.Ant			L.Thigh.Lower.Post			L.Thigh.Upper.Ant			L.Knee.Lat			L.Knee.Med			L.Shank.Upper.Post			L.Shank.Lower.Ant			L.Shank.Lower.Post			L.Shank.Upper.Ant			L.Ankle.Lat			L.Ankle.Med			L.Heel.Upper			L.Heel.Med			L.Heel.Lat			L.Toe.Lat			L.Toe.Med			L.Toe.Tip			Cervical.Spine			Back			
		X1	Y1	Z1	X2	Y2	Z2	X3	Y3	Z3	X4	Y4	Z4	X5	Y5	Z5	X6	Y6	Z6	X7	Y7	Z7	X8	Y8	Z8	X9	Y9	Z9	X10	Y10	Z10	X11	Y11	Z11	X12	Y12	Z12	X13	Y13	Z13	X14	Y14	Z14	X15	Y15	Z15	X16	Y16	Z16	X17	Y17	Z17	X18	Y18	Z18	X19	Y19	Z19	X20	Y20	Z20	X21	Y21	Z21	X22	Y22	Z22	X23	Y23	Z23	X24	Y24	Z24	X25	Y25	Z25	X26	Y26	Z26	X27	Y27	Z27	X28	Y28	Z28	X29	Y29	Z29	X30	Y30	Z30	X31	Y31	Z31	X32	Y32	Z32	X33	Y33	Z33	X34	Y34	Z34	X35	Y35	Z35	X36	Y36	Z36	X37	Y37	Z37	X38	Y38	Z38	X39	Y39	Z39	X40	Y40	Z40	X41	Y41	Z41	X42	Y42	Z42	X43	Y43	Z43	X44	Y44	Z44	X45	Y45	Z45	X46	Y46	Z46	X47	Y47	Z47	X48	Y48	Z48	X49	Y49	Z49	X50	Y50	Z50	X51	Y51	Z51	

89	0.36667	-883.08	1286.4	309.6	-1001	1500.3	472.41	-998.85	1495.5	119.76	-997.27	1816	292.58	-947.65	1055	430.82	-935.26	1049.3	179.41	NaN	NaN	NaN	-1144.3	1087.1	252.86	-1001	988.79	482.63	-1036.5	988.39	121.54	-1034.7	1132.7	460.89	-1003.9	1127.5	142.38	-1158.5	1049.8	295.09	-896.8	763.53	475.69	-807.67	713.54	441.86	-866.39	678.56	457.48	-833.06	800.18	453.82	-805.38	585.84	448.01	-798.79	590.37	319.23	-855.36	363.65	447.78	-797.75	297.23	430.38	-863.09	287.22	434.05	-792	372.32	442.44	-836.01	151.04	414.56	-814.88	155.19	326.22	-896.44	103.76	357.65	-879.94	74.178	329.6	-888.28	74.227	393.67	-718.59	84.904	453.19	-680.83	94.945	337.68	-624.19	117.51	389.28	-1000.9	721	148.01	-957.98	639.6	210.75	-1025	636.3	168.58	-935.82	728.99	184.68	-1053.7	542.61	189.85	-1023.9	549.25	308.54	-1147.3	327.8	208.47	-1096	255.14	212.06	-1167.5	259.59	227.44	-1080.8	322.64	198.47	-1150.3	109.27	230.53	-1143.7	118.81	321.3	-1232.6	76.477	276.55	-1230.6	49.381	308.56	-1225.8	51.581	246.8	-1046.3	41.803	214.73	-1031.2	49.696	333.36	-955.04	55.1	282.31	-1058.2	1553.4	295.87	-1128.7	1286.2	296.43
90	0.37083	-877.65	1285.9	309.53	-995.66	1499.8	472.32	-993.33	1495.1	119.65	-992.04	1815.6	292.57	-942.07	1054.7	430.84	-929.98	1048.8	179.44	NaN	NaN	NaN	-1138.5	1086.5	253.11	-995.45	988.25	482.77	-1031.5	987.93	121.66	-1029.2	1132.3	460.95	-998.56	1126.9	142.38	-1152.9	1049.4	295.3	-892.97	762.39	475.5	-803.86	711.84	441.49	-862.79	677.21	457.17	-828.73	798.62	453.52	-801.63	584.42	447.45	-795.38	588.88	318.65	-846.02	360.95	446.92	-786.59	296.09	429.57	-851.69	284.36	433.08	-782.93	371.31	441.71	-820.56	148.52	413.41	-799.15	153.74	325.19	-879.62	99.756	356.41	-862.22	70.815	328.18	-870.56	70.261	392.24	-701.1	85.522	451.67	-663.86	97.444	336.32	-607.82	121.39	388.01	-997.26	720.67	148.18	-955.03	638.98	210.76	-1022.1	636.11	168.7	-932.42	728.21	184.65	-1051.5	542.49	189.94	-1021.6	548.98	308.65	-1146.2	328.03	208.61	-1095.1	255.16	212.1	-1166.6	259.92	227.55	-1079.7	322.58	198.51	-1150.4	109.43	230.65	-1143.3	119	321.37	-1232.5	76.664	276.64	-1230.5	49.567	308.66	-1225.7	51.746	246.9	-1046.3	41.77	214.73	-1031.1	49.599	333.35	-954.93	54.812	282.34	-1052.9	1553	295.72	-1123	1285.7	296.24
91	0.375	-872.2	1285.5	309.47	-990.35	1499.3	472.24	-987.8	1494.6	119.55	-986.81	1815.1	292.57	-936.46	1054.3	430.87	-924.68	1048.1	179.47	NaN	NaN	NaN	-1132.7	1086	253.38	-989.88	987.67	482.92	-1026.4	987.44	121.8	-1023.6	1131.9	461.02	-993.21	1126.2	142.39	-1147.2	1048.8	295.54	-889.23	761.18	475.37	-800.12	710.05	441.16	-859.27	675.78	456.89	-824.47	796.98	453.26	-797.99	582.94	446.88	-792.06	587.32	318.05	-836.85	358.35	446.04	-775.67	295.05	428.78	-840.5	281.64	432.09	-774.06	370.36	441	-805.34	146.21	412.28	-783.72	152.53	324.19	-863.02	96.032	355.21	-844.75	67.756	326.78	-853.05	66.582	390.84	-683.92	86.342	450.11	-647.29	100.17	334.94	-591.86	125.45	386.71	-993.64	720.33	148.35	-952.03	638.35	210.76	-1019.2	635.9	168.83	-928.97	727.4	184.61	-1049.2	542.35	190.03	-1019.3	548.69	308.75	-1145	328.27	208.74	-1094.3	255.17	212.14	-1165.6	260.25	227.67	-1078.5	322.52	198.55	-1150.5	109.59	230.78	-1143	119.2	321.44	-1232.4	76.87	276.74	-1230.4	49.771	308.77	-1225.7	51.921	247	-1046.2	41.738	214.73	-1031	49.497	333.35	-954.82	54.515	282.37	-1047.5	1552.5	295.58	-1117.2	1285.1	296.07
92	0.37917	-866.73	1285	309.4	-985.04	1498.8	472.17	-982.29	1494.1	119.45	-981.55	1814.6	292.58	-930.83	1053.9	430.91	-919.36	1047.5	179.51	NaN	NaN	NaN	-1126.9	1085.4	253.67	-984.3	987.06	483.06	-1021.3	986.92	121.97	-1018	1131.5	461.11	-987.86	1125.6	142.42	-1141.4	1048.3	295.8	-885.57	759.91	475.29	-796.45	708.18	440.85	-855.83	674.29	456.65	-820.25	795.26	453.03	-794.44	581.39	446.31	-788.82	585.71	317.43	-827.88	355.84	445.14	-765	294.12	428	-829.53	279.07	431.09	-765.41	369.46	440.31	-790.37	144.11	411.17	-768.62	151.55	323.22	-846.68	92.585	354.04	-827.58	64.993	325.4	-835.8	63.192	389.47	-667.09	87.354	448.54	-631.15	103.09	333.55	-576.33	129.66	385.38	-990	719.96	148.51	-948.99	637.7	210.75	-1016.3	635.67	168.95	-925.48	726.58	184.54	-1046.9	542.2	190.12	-1016.8	548.38	308.85	-1143.8	328.51	208.88	-1093.3	255.19	212.18	-1164.7	260.59	227.79	-1077.3	322.46	198.59	-1150.5	109.76	230.92	-1142.6	119.42	321.52	-1232.3	77.099	276.85	-1230.3	49.997	308.88	-1225.6	52.112	247.11	-1046.2	41.705	214.73	-1030.9	49.391	333.35	-954.7	54.206	282.41	-1042.2	1552	295.44	-1111.4	1284.5	295.91
93	0.38333	-861.24	1284.5	309.34	-979.72	1498.2	472.11	-976.77	1493.6	119.37	-976.28	1814.1	292.6	-925.18	1053.4	430.95	-914.02	1046.9	179.56	NaN	NaN	NaN	-1121.1	1084.8	253.98	-978.7	986.43	483.2	-1016.1	986.37	122.16	-1012.4	1131	461.22	-982.5	1125	142.46	-1135.7	1047.7	296.09	-881.96	758.59	475.26	-792.83	706.25	440.56	-852.43	672.73	456.42	-816.07	793.48	452.83	-790.96	579.8	445.72	-785.64	584.04	316.79	-819.1	353.44	444.22	-754.6	293.28	427.23	-818.79	276.65	430.07	-756.97	368.62	439.63	-775.69	142.23	410.1	-753.89	150.79	322.27	-830.64	89.411	352.91	-810.74	62.519	324.06	-818.84	60.086	388.12	-650.65	88.548	446.96	-615.48	106.19	332.16	-561.26	134	384.05	-986.33	719.58	148.66	-945.89	637.02	210.72	-1013.3	635.42	169.08	-921.94	725.75	184.45	-1044.5	542.04	190.21	-1014.3	548.05	308.94	-1142.5	328.76	209.01	-1092.4	255.2	212.22	-1163.7	260.93	227.91	-1076	322.39	198.64	-1150.6	109.95	231.07	-1142.2	119.66	321.61	-1232.2	77.354	276.96	-1230.2	50.248	309.01	-1225.5	52.322	247.23	-1046.1	41.673	214.74	-1030.8	49.279	333.36	-954.58	53.886	282.45	-1036.9	1551.5	295.31	-1105.7	1283.9	295.77
94	0.3875	-855.74	1284	309.28	-974.4	1497.7	472.05	-971.27	1493	119.3	-970.99	1813.6	292.63	-919.51	1052.9	431	-908.65	1046.2	179.61	NaN	NaN	NaN	-1115.3	1084.2	254.32	-973.07	985.76	483.35	-1010.9	985.79	122.37	-1006.8	1130.6	461.34	-977.14	1124.3	142.52	-1130	1047.1	296.41	-878.4	757.22	475.28	-789.24	704.27	440.27	-849.06	671.14	456.21	-811.91	791.64	452.66	-787.54	578.17	445.12	-782.52	582.35	316.11	-810.52	351.14	443.29	-744.47	292.53	426.48	-808.29	274.38	429.03	-748.74	367.82	438.96	-761.35	140.55	409.05	-739.55	150.22	321.35	-814.93	86.504	351.82	-794.29	60.321	322.74	-802.24	57.262	386.81	-634.65	89.907	445.4	-600.3	109.42	330.79	-546.67	138.44	382.73	-982.64	719.18	148.82	-942.74	636.34	210.68	-1010.3	635.15	169.21	-918.34	724.91	184.34	-1042	541.86	190.3	-1011.7	547.7	309.03	-1141.1	329.02	209.14	-1091.4	255.22	212.27	-1162.6	261.29	228.03	-1074.7	322.33	198.68	-1150.6	110.15	231.22	-1141.8	119.9	321.71	-1232.1	77.64	277.08	-1230.1	50.528	309.14	-1225.5	52.555	247.35	-1046.1	41.642	214.76	-1030.7	49.162	333.37	-954.46	53.553	282.49	-1031.5	1550.9	295.19	-1099.9	1283.2	295.65
95	0.39167	-850.22	1283.5	309.22	-969.07	1497.1	472	-965.78	1492.4	119.23	-965.69	1813	292.68	-913.81	1052.4	431.06	-903.26	1045.5	179.66	NaN	NaN	NaN	-1109.6	1083.5	254.67	-967.41	985.07	483.49	-1005.6	985.2	122.61	-1001.1	1130.1	461.48	-971.76	1123.6	142.59	-1124.3	1046.5	296.76	-874.87	755.82	475.32	-785.68	702.26	440	-845.71	669.51	456	-807.75	789.76	452.52	-784.15	576.52	444.51	-779.43	580.64	315.41	-802.15	348.96	442.34	-734.62	291.86	425.74	-798.06	272.26	427.98	-740.74	367.08	438.3	-747.36	139.07	408.02	-725.63	149.84	320.44	-799.6	83.855	350.75	-778.26	58.385	321.45	-786.02	54.71	385.52	-619.11	91.415	443.86	-585.63	112.75	329.43	-532.6	142.92	381.43	-978.93	718.76	148.97	-939.53	635.63	210.64	-1007.2	634.87	169.34	-914.68	724.05	184.22	-1039.5	541.67	190.4	-1009	547.33	309.13	-1139.8	329.29	209.27	-1090.4	255.24	212.32	-1161.5	261.65	228.17	-1073.4	322.26	198.74	-1150.5	110.36	231.37	-1141.4	120.17	321.82	-1231.9	77.961	277.2	-1230	50.842	309.27	-1225.4	52.816	247.48	-1046.1	41.612	214.79	-1030.5	49.038	333.39	-954.33	53.209	282.54	-1026.2	1550.4	295.08	-1094.2	1282.5	295.55
